<svg xmlns="http://www.w3.org/2000/svg" viewBox="0 0 511.992 511.992">
  <path d="M506.905 62.854a15.883 15.883 0 0 0-10.903-4.304H33.853c-4.143 0-7.5 3.358-7.5 7.5s3.357 7.5 7.5 7.5h158.582c-.021.329-.052.657-.052.989v18.524H65.548c-4.143 0-7.5 3.358-7.5 7.5s3.357 7.5 7.5 7.5h126.835v19.513H97.244c-4.143 0-7.5 3.358-7.5 7.5s3.357 7.5 7.5 7.5h95.139v19.513H128.94c-4.143 0-7.5 3.358-7.5 7.5s3.357 7.5 7.5 7.5h63.443v57.439H15.99c-4.072 0-7.944 1.529-10.863 4.267A16.004 16.004 0 0 0 0 250.518v90.783c0 4.142 3.357 7.5 7.5 7.5s7.5-3.358 7.5-7.5v-83.217l102.675 85.898L15 429.886v-53.189c0-4.142-3.357-7.5-7.5-7.5s-7.5 3.358-7.5 7.5v60.756c0 4.438 1.868 8.711 5.087 11.686a15.883 15.883 0 0 0 10.903 4.304h462.149c4.143 0 7.5-3.358 7.5-7.5s-3.357-7.5-7.5-7.5H319.558c.021-.33.052-.658.052-.99V418.93h126.835c4.143 0 7.5-3.358 7.5-7.5s-3.357-7.5-7.5-7.5H319.609v-19.513h95.139c4.143 0 7.5-3.358 7.5-7.5s-3.357-7.5-7.5-7.5h-95.139v-19.513h63.443c4.143 0 7.5-3.358 7.5-7.5s-3.357-7.5-7.5-7.5h-63.443v-57.439h55.689c4.143 0 7.5-3.358 7.5-7.5s-3.357-7.5-7.5-7.5h-55.689V250.52c0-4.439-1.868-8.712-5.086-11.685a15.88 15.88 0 0 0-10.904-4.305H253.92l67.825-56.747 20.182 16.884a15.95 15.95 0 0 0 10.26 3.731 15.96 15.96 0 0 0 10.26-3.73l20.182-16.885 101.213 84.682h-73.149c-4.143 0-7.5 3.358-7.5 7.5s3.357 7.5 7.5 7.5h85.309c4.072 0 7.944-1.529 10.863-4.267a16.004 16.004 0 0 0 5.127-11.723V74.539c0-4.438-1.868-8.711-5.087-11.685zM291.459 249.529l-53.223 44.526a7.499 7.499 0 0 0-.939 10.565 7.482 7.482 0 0 0 5.756 2.688 7.47 7.47 0 0 0 4.809-1.748l56.748-47.475v171.802l-102.674-85.904 18.821-15.746a7.499 7.499 0 0 0 .939-10.565 7.498 7.498 0 0 0-10.564-.94l-50.691 42.41a.99.99 0 0 1-1.27 0L28.15 249.529zM149.545 370.645a15.95 15.95 0 0 0 10.26 3.731 15.96 15.96 0 0 0 10.26-3.73l20.182-16.885 101.213 84.681H28.15l101.213-84.681zm155.009-120.44c-.099-.142-.202-.283-.301-.426.016.014.033.018.05.033a.98.98 0 0 1 .251.393zm-74.01-15.676h-23.161V82.105l102.675 85.898zm122.278-51.367a.988.988 0 0 1-1.27 0L220.534 73.55h263.308zm144.17-101.057v171.802l-102.674-85.904z"/>
</svg>
