<svg xmlns="http://www.w3.org/2000/svg" id="Layer_1" viewBox="0 0 553 107"><style>.st0{fill:#f34747}</style><path d="M22 88c0 5.5 4.5 10 10 10h9v9H31c-9.9 0-18-8.1-18-18V47H0v-9h13V23l9-3v18h19v9H22v41z"/><path d="M51 98h20v9H51v-9z" class="st0"/><path d="M115.9 37c9.9 0 17.9 3.5 24 10.5 6.1 7 9.2 15.3 9.2 24.8 0 1-.1 2.4-.3 4.1H90.1c.9 6.8 3.8 12.1 8.6 16.1s10.8 5.9 18 5.9c5.1 0 9.5-1 13.2-3.1 3.7-2.1 6.5-4.8 8.3-8.2l7.7 4.5c-2.9 4.7-6.9 8.5-12 11.2-5.1 2.8-10.9 4.1-17.4 4.1-10.5 0-19.1-3.3-25.6-9.9S81 82.2 81 72c0-10 3.3-18.3 9.8-25 6.5-6.7 14.8-10 25.1-10zm0 8.5c-6.9 0-12.8 2.1-17.4 6.2-4.7 4.1-7.5 9.5-8.4 16.1h49.8c-.9-7-3.6-12.5-8.1-16.4-4.6-3.9-9.9-5.9-15.9-5.9zM159 107V8h9v99h-9zm53.9-70c9.9 0 17.9 3.5 24 10.5 6.1 7 9.2 15.3 9.2 24.8 0 1-.1 2.4-.3 4.1h-58.6c.9 6.8 3.8 12.1 8.6 16.1s10.8 5.9 18 5.9c5.1 0 9.5-1 13.2-3.1 3.7-2.1 6.5-4.8 8.3-8.2l7.7 4.5c-2.9 4.7-6.9 8.5-12 11.2-5.1 2.8-10.9 4.1-17.4 4.1-10.5 0-19.1-3.3-25.6-9.9s-10-14.8-10-25c0-10 3.3-18.3 9.8-25 6.5-6.7 14.8-10 25.1-10zm0 8.5c-6.9 0-12.8 2.1-17.4 6.2-4.7 4.1-7.5 9.5-8.4 16.1h49.8c-.9-7-3.6-12.5-8.1-16.4-4.6-3.9-9.9-5.9-15.9-5.9zm89.8-6.5h9.3l-27.2 68h-10.6L247 39h9.3l23.2 57.8L302.7 39zm71.5-.4h8.8v67.8h-8.8V92.3c-6.1 9.8-15.1 14.7-26.9 14.7-9.5 0-17.6-3.4-24.3-10.2-6.7-6.8-10-15-10-24.8s3.3-18.1 10-24.8c6.7-6.8 14.8-10.2 24.3-10.2 11.8 0 20.8 4.9 26.9 14.7V38.6zm-45.8 52.2c5.1 5.1 11.3 7.6 18.6 7.6 7.4 0 13.6-2.6 18.6-7.7 5.1-5.1 7.6-11.4 7.6-18.8s-2.5-13.6-7.6-18.8c-5.1-5.1-11.3-7.7-18.6-7.7-7.4 0-13.6 2.6-18.6 7.7-5.1 5.1-7.6 11.4-7.6 18.8s2.5 13.8 7.6 18.9zM478.9 37c9.9 0 17.9 3.5 24 10.5 6.1 7 9.2 15.3 9.2 24.8 0 1-.1 2.4-.3 4.1h-58.6c.9 6.8 3.8 12.1 8.6 16.1s10.8 5.9 18 5.9c5.1 0 9.5-1 13.2-3.1 3.7-2.1 6.5-4.8 8.3-8.2l7.7 4.5c-2.9 4.7-6.9 8.5-12 11.2-5.1 2.8-10.9 4.1-17.4 4.1-10.5 0-19.1-3.3-25.7-9.9S444 82.2 444 72c0-10 3.3-18.3 9.8-25 6.5-6.7 14.8-10 25.1-10zm0 8.5c-6.9 0-12.8 2.1-17.4 6.2-4.7 4.1-7.5 9.5-8.3 16.1H503c-.9-7-3.6-12.5-8.2-16.4-4.6-3.9-9.9-5.9-15.9-5.9zM415 88c0 5.5 4.5 10 10 10h9v9h-10c-9.9 0-18-8.1-18-18V47h-13v-9h13V23l9-3v18h19v9h-19v41z"/><path d="M525 0h28v28c0 6.6-5.4 12-12 12h-28V12c0-6.6 5.4-12 12-12z" class="st0"/></svg>