<svg xmlns="http://www.w3.org/2000/svg" id="Layer_1" viewBox="0 0 468 132"><style>.st0{fill:#2fcc70}</style><path d="M22 88c0 5.5 4.5 10 10 10h9v9H31c-9.9 0-18-8.1-18-18V47H0v-9h13V23l9-3v18h19v9H22v41z"/><path d="M51 98h20v9H51v-9z" class="st0"/><path d="M91.7 56.8c0 3 1.3 5.4 3.9 7.1 2.6 1.8 5.8 3.1 9.6 4.1 3.8 1 7.5 2 11.3 3.2 3.8 1.2 6.9 3.2 9.6 5.9 2.6 2.8 3.9 6.4 3.9 10.9 0 5.6-2.2 10.2-6.6 13.7-4.4 3.5-10.1 5.3-17.1 5.3-6.3 0-11.6-1.4-16-4.2-4.4-2.8-7.5-6.5-9.2-10.9l7.3-4.3c1.2 3.4 3.4 6.1 6.6 8.1s7 3 11.3 3c4.3 0 7.9-.9 10.7-2.6 2.9-1.7 4.3-4.4 4.3-8 0-3-1.3-5.4-3.9-7.1-2.6-1.8-5.8-3.1-9.6-4.1-3.8-1-7.5-2-11.3-3.2-3.8-1.2-6.9-3.2-9.6-5.9C84.3 65 83 61.4 83 56.9c0-5.4 2.1-9.8 6.4-13.4 4.2-3.6 9.6-5.4 16-5.4 5.3 0 10 1.2 14 3.6 4 2.4 7 5.7 8.9 9.8l-7.2 4.2c-2.5-6.1-7.8-9.2-15.7-9.2-3.8 0-7 .9-9.7 2.7-2.6 1.7-4 4.3-4 7.6zm84-19.8c9.5 0 17.6 3.4 24.3 10.1 6.7 6.8 10 15 10 24.8s-3.3 18.1-10 24.8c-6.7 6.8-14.8 10.1-24.3 10.1-11.8 0-20.8-4.9-26.9-14.7V132H140V38.6h8.8v13.1c6.1-9.8 15.1-14.7 26.9-14.7zm-18.1 54.3c5.1 5.1 11.3 7.6 18.7 7.6 7.4 0 13.6-2.6 18.7-7.7s7.6-11.4 7.6-18.8-2.5-13.6-7.6-18.8c-5.1-5.1-11.3-7.7-18.7-7.7-7.4 0-13.6 2.6-18.7 7.7S150 65 150 72.4s2.5 13.7 7.6 18.9zM228.5 51c4-8 10.8-12 20.5-12v8.4c-5.9 0-10.7 1.8-14.6 5.3-3.9 3.5-5.8 9.1-5.8 16.6V107H220V40.1h8.5V51zm40.8-20.7c-1.2 1.2-2.6 1.8-4.3 1.8s-3.1-.6-4.3-1.8-1.7-2.6-1.7-4.3.6-3.1 1.8-4.3 2.6-1.8 4.3-1.8 3.1.6 4.3 1.8 1.8 2.6 1.8 4.3-.8 3.1-1.9 4.3zM261 107V39h8v68h-8zm51-69c8 0 14.4 2.5 19 7.4s7 11.5 7 19.9V107h-8.7V65.2c0-5.9-1.6-10.5-4.7-13.8-3.1-3.3-7.6-4.9-13.3-4.9-6.4 0-11.5 2-15.5 6s-6 10.2-6 18.7V107H281V39.6h8.7V50c5-8 12.4-12 22.3-12zm97.2-.4h8.8v63.6c0 9.5-3.3 17.1-9.8 22.5-6.6 5.5-14.4 8.2-23.6 8.2-15.6 0-26.1-5.4-31.5-16.2l7.7-4.4c4 8 11.9 12.1 23.8 12.1 7.6 0 13.6-2 18-6s6.6-9.4 6.6-16.2V90.9c-6.1 9.7-15.1 14.6-26.9 14.6-9.5 0-17.6-3.4-24.3-10.1-6.7-6.7-10-14.9-10-24.7 0-9.7 3.3-17.9 10-24.7 6.7-6.7 14.8-10.1 24.3-10.1 11.8 0 20.8 4.9 26.9 14.6V37.6zm-44.4 51.6c5.1 5.1 11.3 7.6 18.7 7.6 7.4 0 13.6-2.6 18.7-7.7s7.6-11.4 7.6-18.8-2.5-13.6-7.6-18.8c-5.1-5.1-11.3-7.7-18.7-7.7s-13.6 2.6-18.7 7.7-7.6 11.4-7.6 18.8 2.6 13.7 7.6 18.9z"/><path d="M440 0h28v28c0 6.6-5.4 12-12 12h-28V12c0-6.6 5.4-12 12-12z" class="st0"/></svg>