<svg xmlns="http://www.w3.org/2000/svg" viewBox="0 0 446 131"><path d="M91.5 56.6c0 2.9 1.3 5.3 3.9 7s5.7 3.1 9.4 4c3.7 1 7.4 2 11 3.2s6.8 3.1 9.4 5.8 3.9 6.3 3.9 10.7c0 5.5-2.2 10-6.5 13.5s-9.9 5.2-16.7 5.2c-6.2 0-11.4-1.4-15.7-4.2s-7.3-6.4-9-10.8l7.2-4.3c1.2 3.4 3.4 6 6.5 8 3.1 1.9 6.8 2.9 11.1 2.9 4.2 0 7.7-.8 10.5-2.5s4.2-4.3 4.2-7.9c0-2.9-1.3-5.3-3.9-7s-5.7-3.1-9.4-4c-3.7-1-7.4-2-11-3.2-3.7-1.2-6.8-3.1-9.4-5.8s-3.9-6.3-3.9-10.7c0-5.3 2.1-9.7 6.2-13.2S98.7 38 105 38c5.2 0 9.8 1.2 13.7 3.6s6.8 5.6 8.7 9.7l-7.1 4.2c-2.5-6.1-7.6-9.1-15.4-9.1-3.7 0-6.8.9-9.5 2.7-2.5 1.6-3.9 4.2-3.9 7.5zm267 0c0 2.9 1.3 5.3 3.9 7 2.6 1.7 5.7 3.1 9.4 4 3.7 1 7.4 2 11 3.2 3.7 1.2 6.8 3.1 9.4 5.8 2.6 2.7 3.9 6.3 3.9 10.7 0 5.5-2.2 10-6.5 13.5s-9.9 5.2-16.7 5.2c-6.2 0-11.4-1.4-15.7-4.2s-7.3-6.4-9-10.8l7.2-4.3c1.2 3.4 3.4 6 6.5 8 3.1 1.9 6.8 2.9 11.1 2.9 4.2 0 7.7-.8 10.5-2.5s4.2-4.3 4.2-7.9c0-2.9-1.3-5.3-3.9-7s-5.7-3.1-9.4-4c-3.7-1-7.4-2-11-3.2-3.7-1.2-6.8-3.1-9.4-5.8s-3.9-6.3-3.9-10.7c0-5.3 2.1-9.7 6.2-13.2S365.7 38 372 38c5.2 0 9.8 1.2 13.7 3.6 3.9 2.4 6.8 5.6 8.7 9.7l-7.1 4.2c-2.5-6.1-7.6-9.1-15.4-9.1-3.7 0-6.8.9-9.5 2.7-2.5 1.6-3.9 4.2-3.9 7.5zM13 86V46H0v-9h13V22l9-3v18h19v9H22v41c0 5.5 4.5 10 10 10h9v9H31c-9.9 0-18-8.1-18-18v-2zm148 1c0 5.5 4.5 10 10 10h9v9h-10c-9.9 0-18-8.1-18-18V46h-13v-9h13V22l9-3v18h19v9h-19v41z"/><path fill="#2fcc70" d="M51 97h20v9H51v-9z"/><path fill="#26b1fc" d="M51 67h20v9H51v-9z"/><path fill="#f34747" d="M51 36h20v9H51v-9z"/><path fill="#ff8c00" d="M418 0h28v28c0 6.6-5.4 12-12 12h-28V12c0-6.6 5.4-12 12-12z"/><path d="M303.7 36c9.5 0 17.6 3.4 24.3 10.1 6.7 6.8 10 15 10 24.8s-3.3 18.1-10 24.8c-6.7 6.8-14.8 10.1-24.3 10.1-11.8 0-20.8-4.9-26.9-14.7V131H268V37.6h8.8v13.1c6.1-9.8 15.1-14.7 26.9-14.7zM285 90.2c5.1 5.1 11.3 7.6 18.7 7.6s13.6-2.6 18.7-7.7 7.6-11.4 7.6-18.8-2.5-13.6-7.6-18.8-11.3-7.7-18.7-7.7-13.6 2.6-18.7 7.7-7.6 11.4-7.6 18.8S280 85 285 90.2zM224.9 36c9.9 0 17.9 3.5 24 10.5s9.2 15.3 9.2 24.8c0 1-.1 2.4-.3 4.1h-58.6c.9 6.8 3.8 12.1 8.6 16.1 4.9 4 10.8 5.9 18 5.9 5.1 0 9.5-1 13.2-3.1s6.5-4.8 8.3-8.2l7.7 4.5c-2.9 4.7-6.9 8.5-12 11.2s-11 4.2-17.5 4.2c-10.5 0-19.1-3.3-25.7-9.9-6.6-6.6-9.9-15-9.9-25.1 0-10 3.3-18.3 9.8-25 6.5-6.7 14.9-10 25.2-10zm0 8.5c-6.9 0-12.8 2.1-17.4 6.2s-7.5 9.5-8.3 16.1H249c-.9-7-3.6-12.5-8.1-16.4-4.7-3.9-10-5.9-16-5.9z"/></svg>