<svg xmlns="http://www.w3.org/2000/svg" viewBox="0 0 1000 1000" fill="#fff">
  <path d="M245.7 696.7c15 0 27.8-9.1 38.5-27.3 97.6-173 148.3-263.1 152.3-270.2l-97.2-169.4C329 212 316 203.1 300.2 203.1H158.6c-9.1 0-15.4 3-19 8.9-4.3 5.9-4.2 13.2.6 21.9l95.4 165.3c.4.4.4.6 0 .6L85.7 665.3c-3.9 7.5-3.9 14.6 0 21.3 3.9 6.7 10.1 10.1 18.4 10.1h141.6zM895.6 10H752.8c-15.4 0-28.1 8.9-37.9 26.7-202.6 359.4-307.5 545.5-314.6 558.1l200.9 368.5c9.5 17.8 22.5 26.7 39.1 26.7h141.6c8.7 0 15-3 19-8.9 3.9-6.7 3.7-14-.6-21.9L601.2 594.8v-.6L914 40.8c4.3-8.3 4.3-15.6 0-21.9-3.6-5.9-9.7-8.9-18.4-8.9z"/>
</svg>
